<svg xmlns="http://www.w3.org/2000/svg" width="40" height="40" viewBox="0 0 40 40" fill="none">
  <path d="M27.5469 25.9541C27.7582 26.1654 27.877 26.4521 27.877 26.7509C27.877 27.0498 27.7582 27.3365 27.5469 27.5478C27.3355 27.7592 27.0489 27.8779 26.75 27.8779C26.4511 27.8779 26.1645 27.7592 25.9531 27.5478L20.0009 21.5937L14.0469 27.5459C13.8355 27.7573 13.5489 27.876 13.25 27.876C12.9511 27.876 12.6645 27.7573 12.4531 27.5459C12.2418 27.3346 12.123 27.0479 12.123 26.7491C12.123 26.4502 12.2418 26.1635 12.4531 25.9522L18.4072 20L12.455 14.0459C12.2437 13.8346 12.1249 13.5479 12.1249 13.2491C12.1249 12.9502 12.2437 12.6635 12.455 12.4522C12.6663 12.2408 12.953 12.1221 13.2519 12.1221C13.5508 12.1221 13.8374 12.2408 14.0487 12.4522L20.0009 18.4062L25.955 12.4513C26.1663 12.2399 26.453 12.1212 26.7519 12.1212C27.0508 12.1212 27.3374 12.2399 27.5487 12.4513C27.7601 12.6626 27.8788 12.9492 27.8788 13.2481C27.8788 13.547 27.7601 13.8337 27.5487 14.045L21.5947 20L27.5469 25.9541Z" fill="#1E2939"/>
</svg>