<svg xmlns="http://www.w3.org/2000/svg" width="136" height="36" viewBox="0 0 136 36" fill="none">
  <path d="M119.878 17.9317C119.172 15.4072 117.618 13.5685 115.217 12.4215C112.81 11.2746 110.147 11.1031 107.218 11.9131C103.642 12.9063 100.838 15.082 98.8277 18.4638C95.6494 23.7848 96.0645 31.7367 102.107 34.8643C104.562 36.1295 107.337 36.3364 110.408 35.491C111.748 35.1244 113.201 34.4623 114.772 33.5281L113.823 32.192C112.335 33.0492 111.037 33.6286 109.922 33.9361C107.431 34.6219 105.16 34.4268 103.115 33.3271C97.9797 30.5779 97.7722 23.7907 100.381 19.2383C102.16 16.1462 105.35 13.7932 108.872 13.196C112.875 12.522 117.025 14.8219 118.122 18.7831C119.296 23.0221 116.51 26.7941 112.839 28.6269C111.837 29.0703 110.853 29.3896 109.886 29.5847C108.617 29.8389 107.615 29.9217 106.886 29.8507C105.967 29.7561 105.249 29.3718 104.739 28.6919C104.229 28.0179 104.04 27.0129 104.176 25.6885C106.311 25.7358 108.149 25.4993 109.702 24.9672C111.25 24.4411 112.454 23.7257 113.302 22.8211C114.15 21.9225 114.636 20.8878 114.76 19.7231C114.861 18.7476 114.636 17.9554 114.084 17.3523C113.533 16.7552 112.685 16.3945 111.547 16.2704C109.904 16.0989 108.321 16.4773 106.809 17.4055C105.297 18.3337 104.04 19.5812 103.055 21.1598C102.071 22.7324 101.478 24.4056 101.294 26.1792C101.122 27.811 101.431 29.1472 102.219 30.1818C103.008 31.2224 104.212 31.8254 105.83 31.9909C107.775 32.192 109.732 31.9673 111.968 31.2105C115.015 30.4774 118.051 28.0534 119.261 25.2392C120.293 22.9985 120.518 20.2848 119.866 17.9199L119.878 17.9317ZM105.73 21.2485C106.056 20.7696 106.429 20.338 106.833 19.9478C107.337 19.4512 107.876 19.0669 108.439 18.7949C109.145 18.4461 109.821 18.3042 110.479 18.3751C110.965 18.4283 111.345 18.6294 111.624 18.99C111.896 19.3506 112.015 19.7172 111.973 20.1015C111.914 20.6927 111.582 21.2958 110.989 21.887C110.39 22.4841 109.619 22.9275 108.671 23.2172C107.716 23.5128 106.382 23.6488 104.656 23.637C105.048 22.5255 105.398 21.7333 105.73 21.2603V21.2485Z" fill="#A6CE38"/>
  <path d="M17.3676 0C8.75793 0 1.3045 6.26103 0.0118591 14.5736C0.0118591 14.5913 0 14.6032 0 14.615L0.0355772 14.544C1.77293 8.21206 7.95744 2.96202 15.1322 2.96202C23.1489 2.96202 29.6655 9.2467 29.6655 16.974C29.6655 23.5188 25.7757 29.4251 20.7949 30.4124H19.437C19.3599 30.4006 19.3303 30.3828 19.3303 30.2942C19.3303 29.8567 19.6386 29.0999 19.8521 28.5974L19.9351 28.3786L22.6271 21.1894C23.2853 19.4334 23.3031 18.0914 22.6805 17.1927C22.2002 16.501 21.3404 16.1167 20.2731 16.1167C17.6819 16.1167 15.6481 17.5179 14.391 18.6885C14.3851 18.7003 14.2487 18.8304 14.2487 18.8304C13.4008 19.6581 12.5766 20.5272 12.5766 21.2426C12.5766 21.7037 12.9976 22.1235 13.466 22.1235C13.9344 22.1235 14.3139 21.686 14.8179 21.1243C15.3575 20.5213 16.0275 19.7704 16.6561 19.7704C16.6561 19.7704 16.6739 19.7704 16.6976 19.7941C16.7094 19.8177 16.7272 19.8591 16.7272 19.9182C16.7272 19.9892 16.7094 20.0897 16.662 20.2079C16.662 20.2079 16.6976 20.2257 16.7035 20.2316C16.3952 20.9943 14.2665 26.2679 14.2665 26.2679C13.549 27.9707 12.707 30.3119 12.707 31.8313C12.707 33.3508 13.8514 34.4977 15.7666 34.7874C19.8225 35.5797 24.489 34.214 28.2305 31.1278C32.5117 27.5982 34.9546 22.5078 34.9309 17.175C34.8835 7.70361 27.0091 0 17.3736 0H17.3676Z" fill="#2B7FFF"/>
  <path d="M25.3785 11.0025C25.3785 9.01007 23.7538 7.39604 21.7615 7.39604C19.7691 7.39604 18.1445 9.01007 18.1445 11.0025C18.1445 12.9949 19.7632 14.6089 21.7615 14.6089C23.7597 14.6089 25.3785 12.9949 25.3785 11.0025Z" fill="#51A2FF"/>
  <path d="M33.7687 33.8534L39.2476 15.4309H43.6473L45.1475 22.4546C45.5744 24.8077 45.8175 26.7173 45.9954 28.7393H46.0784C46.3808 26.8533 46.873 24.8313 47.6557 22.1295L49.6362 15.4368H53.1524L47.6675 33.8593H43.7896L42.2005 26.5045C41.7143 23.9918 41.4415 22.3246 41.2281 20.0838H41.151C40.7596 21.8871 40.0362 24.4825 39.1764 27.4032L37.2553 33.8593H33.7687V33.8534Z" fill="#221D1E"/>
  <path d="M56.5856 15.4309H66.8733L65.8534 18.795H59.3428L58.0324 23.1109H64.1517L63.1436 26.4217H57.054L54.8601 33.8593H51.1067L56.5915 15.4368L56.5856 15.4309Z" fill="#221D1E"/>
  <path d="M72.2396 34.1549C67.6857 34.1549 65.5273 30.7672 66.0254 26.4749C66.4108 23.17 67.9644 19.9183 70.2176 17.8135C72.0498 16.1463 74.4335 15.1353 76.9891 15.1353C81.626 15.1353 83.6895 18.4166 83.1796 22.8094C82.7882 26.1439 81.288 29.4251 79.0645 31.4767C77.2559 33.1735 74.9019 34.1549 72.2692 34.1549H72.2396ZM73.1408 30.8736C76.1649 30.8736 78.7443 26.3922 79.1475 22.9217C79.4143 20.6218 78.8925 18.4107 76.1293 18.4107C72.9807 18.4107 70.4014 22.8389 69.9982 26.339C69.6958 28.9344 70.5911 30.8736 73.1171 30.8736H73.1408Z" fill="#221D1E"/>
  <path d="M84.0453 29.5905C85.0118 30.2468 86.4053 30.767 88.0477 30.767C89.4768 30.767 90.888 30.0517 91.054 28.6327C91.1785 27.5685 90.5026 26.9064 88.9905 26.0077C87.265 24.9672 85.6641 23.495 85.9427 21.1124C86.3756 17.3936 89.7139 15.1293 93.5385 15.1293C95.6494 15.1293 96.8353 15.62 97.5528 16.0279L95.9933 19.3092C95.4597 18.984 94.2975 18.4933 92.8329 18.5169C91.0896 18.5169 90.0756 19.4156 89.9571 20.4266C89.8266 21.5204 90.8228 22.1766 92.2043 23.0575C94.2026 24.2281 95.3529 25.7298 95.092 27.9469C94.6177 32.0441 91.143 34.1488 87.2591 34.1488C84.8399 34.1193 83.144 33.463 82.4147 32.8363L84.0453 29.5846V29.5905Z" fill="#221D1E"/>
  <path d="M126.542 18.8718H121.905L122.955 15.4309H136L134.974 18.8718H130.29L125.837 33.8534H122.083L126.542 18.8718Z" fill="#221D1E"/>
</svg>