<svg width="226" height="50" viewBox="0 0 226 50" fill="none" xmlns="http://www.w3.org/2000/svg">
<g clip-path="url(#clip0_750_2678)">
<mask id="mask0_750_2678" style="mask-type:luminance" maskUnits="userSpaceOnUse" x="0" y="0" width="96" height="50">
<path d="M96 0H0V50H96V0Z" fill="white"/>
</mask>
<g mask="url(#mask0_750_2678)">
<path d="M17.4237 15.2449H14.6204V8.00562H11.8005V22.4934H2.81988V11.6761H9.54294V8.52336H0V24.1114C0 24.9527 0.611939 25.6462 1.37273 25.6462H11.8088V31.1287H14.6287V18.3976H17.432V31.1287H20.2519V8.00562H17.432V15.2449H17.4237Z" fill="#1A1A1A"/>
<path d="M36.2278 40.0702H44.9355V36.9175H27.5366V30.0018H44.9355V26.8491H24.725V38.5262C24.725 39.3676 25.3369 40.061 26.0977 40.061H33.4162V46.8195H23.7988V49.9722H45.8038V46.8195H36.2278V40.061V40.0702Z" fill="#1A1A1A"/>
<path d="M96.0005 30.6391H93.5197V26.8577H90.6998V35.7611H87.1192V28.4017C87.1192 27.5603 86.5072 26.8669 85.7464 26.8669H73.5986V30.0197H84.2993V35.7611H79.4616V32.2108H76.6418V35.7611H73.334V38.9139H90.6916V46.8373H77.1049V41.4471H74.285V48.4552C74.285 49.2967 74.8969 49.99 75.6577 49.99H93.4866V48.9453H93.5114V33.7918H95.9923V30.6391H96.0005Z" fill="#1A1A1A"/>
<path d="M67.3885 26.8684V32.3789H62.4434V35.5315H67.3885V37.5379H67.4133V49.9824H70.2084V26.8684H67.3885Z" fill="#1A1A1A"/>
<path d="M55.843 26.8772H53.0975C50.9723 26.8772 49.153 28.6523 48.8719 31.1024L47.6562 49.9911H50.4513L51.6504 31.4074C51.7496 30.5939 52.3698 29.9836 53.1058 29.9836H55.8513C56.5873 29.9836 57.2157 30.5939 57.2984 31.315L58.5058 49.9911H61.3008L60.077 31.0099C59.8041 28.6523 57.9848 26.8772 55.8595 26.8772H55.843Z" fill="#10833C"/>
<path d="M54.4953 49.1023C54.3051 49.1023 54.1562 48.9358 54.1562 48.7233V32.6359C54.1562 32.4233 54.3051 32.2568 54.4953 32.2568C54.6855 32.2568 54.8343 32.4233 54.8343 32.6359V48.7233C54.8343 48.9358 54.6855 49.1023 54.4953 49.1023Z" fill="#C9CACA"/>
<path d="M52.4444 49.0935C52.2542 49.0935 52.1053 48.9086 52.1136 48.7051L52.5271 33.302C52.5271 33.0895 52.6925 32.923 52.8744 32.9323C53.0563 32.9415 53.2134 33.1171 53.2052 33.3206L52.7917 48.7237C52.7917 48.9364 52.6263 49.1027 52.4444 49.0935Z" fill="#C9CACA"/>
<path d="M56.5717 49.0935C56.7619 49.0935 56.9107 48.9086 56.9024 48.7051L56.489 33.302C56.489 33.0895 56.3236 32.923 56.1416 32.9323C55.9597 32.9415 55.8026 33.1171 55.8109 33.3206L56.2243 48.7237C56.2243 48.9364 56.3897 49.1027 56.5717 49.0935Z" fill="#C9CACA"/>
<path d="M53.0645 2.31023C53.3456 2.25476 53.6847 2.21777 54.0568 2.21777C54.7266 2.21777 55.2062 2.39344 55.5288 2.72628C55.8595 3.05913 56.0415 3.53065 56.0415 4.17784C56.0415 4.82503 55.8513 5.37976 55.5205 5.74958C55.1732 6.12865 54.6191 6.33205 53.9162 6.33205C53.5772 6.33205 53.3043 6.31356 53.0645 6.28583V2.31023ZM53.5358 5.89751C53.6516 5.91601 53.8252 5.92525 54.0072 5.92525C55.016 5.92525 55.5536 5.29655 55.5536 4.20557C55.5536 3.25328 55.0739 2.64307 54.0816 2.64307C53.8418 2.64307 53.6599 2.67081 53.5358 2.69855V5.90675V5.89751Z" fill="#1A1A1A"/>
<path d="M57.7038 5.0305L57.3234 6.30639H56.8438L58.0842 2.25684H58.6465L59.8869 6.30639H59.3907L59.0021 5.0305H57.7203H57.7038ZM58.8946 4.6237L58.5307 3.45876C58.448 3.19064 58.3984 2.95026 58.3405 2.71911H58.3323C58.2744 2.95026 58.2247 3.20912 58.1503 3.44951L57.7947 4.6237H58.8946Z" fill="#1A1A1A"/>
<path d="M62.8225 4.41105H61.4167V5.87185H62.9879V6.31564H60.9453V2.25684H62.9052V2.69138H61.4167V3.97651H62.8225V4.41105Z" fill="#1A1A1A"/>
<path d="M66.8989 6.12865C66.6921 6.22111 66.2704 6.35054 65.7825 6.35054C65.2367 6.35054 64.7819 6.19337 64.4263 5.8143C64.1121 5.48146 63.9219 4.93597 63.9219 4.30727C63.9219 3.09611 64.6661 2.21777 65.8817 2.21777C66.3035 2.21777 66.6342 2.31947 66.7914 2.40268L66.6756 2.82798C66.4854 2.72628 66.2373 2.65232 65.8735 2.65232C64.9886 2.65232 64.418 3.26253 64.418 4.27954C64.418 5.29655 64.9638 5.91601 65.8156 5.91601C66.1215 5.91601 66.3283 5.86977 66.4358 5.80505V4.59388H65.7081V4.1686H66.8989V6.11941V6.12865Z" fill="#1A1A1A"/>
<path d="M68.612 2.25684V4.66068C68.612 5.56675 68.9758 5.94581 69.4555 5.94581C69.9847 5.94581 70.3403 5.54826 70.3403 4.66068V2.25684H70.8117V4.6237C70.8117 5.87185 70.2245 6.37111 69.4389 6.37111C68.6947 6.37111 68.1406 5.89959 68.1406 4.64219V2.25684H68.612Z" fill="#1A1A1A"/>
<path d="M56.1248 11.7871C56.1 11.2232 56.0669 10.539 56.0669 10.0398H56.0587C55.9263 10.5113 55.7858 11.0198 55.6038 11.5838L54.9671 13.5531H54.6115L54.0161 11.6208C53.8424 11.0475 53.7019 10.5298 53.6026 10.049H53.5944C53.5861 10.5575 53.553 11.2232 53.5282 11.8427L53.429 13.5808H52.9824L53.2388 9.53125H53.8342L54.4544 11.4913C54.6032 11.9906 54.7273 12.4343 54.8182 12.8597H54.8265C54.9257 12.4529 55.0498 12.0091 55.2152 11.4913L55.8602 9.53125H56.4556L56.6789 13.5808H56.2158L56.1331 11.8057L56.1248 11.7871Z" fill="#1A1A1A"/>
<path d="M59.8049 11.6681H58.3991V13.1289H59.9703V13.5635H57.9277V9.51392H59.8876V9.95771H58.3991V11.2428H59.8049V11.6774V11.6681Z" fill="#1A1A1A"/>
<path d="M61.8967 9.95771H60.7969V9.51392H63.4844V9.95771H62.3763V13.5635H61.905V9.95771H61.8967Z" fill="#1A1A1A"/>
<path d="M64.4199 9.56881C64.6597 9.52257 64.9988 9.4856 65.3213 9.4856C65.8175 9.4856 66.1482 9.59654 66.3715 9.81844C66.5452 9.9941 66.6527 10.2715 66.6527 10.5951C66.6527 11.122 66.355 11.4826 65.9746 11.6214V11.6398C66.2475 11.7508 66.4129 12.0374 66.5038 12.4535C66.6196 13.0174 66.7106 13.4057 66.785 13.5629H66.3054C66.2475 13.4427 66.1648 13.1006 66.0655 12.5921C65.958 12.0374 65.7596 11.8247 65.3296 11.8063H64.8913V13.5629H64.4199V9.56881ZM64.883 11.4179H65.3626C65.8671 11.4179 66.1813 11.1128 66.1813 10.6505C66.1813 10.1235 65.8423 9.90164 65.3461 9.90164C65.1228 9.90164 64.9657 9.92014 64.883 9.94787V11.4271V11.4179Z" fill="#1A1A1A"/>
<path d="M70.9684 11.5013C70.9684 12.8881 70.2076 13.6369 69.2814 13.6369C68.3552 13.6369 67.6523 12.8048 67.6523 11.5752C67.6523 10.2901 68.3635 9.44873 69.331 9.44873C70.2986 9.44873 70.9684 10.2993 70.9684 11.5013ZM68.1485 11.5567C68.1485 12.4258 68.5703 13.2024 69.3062 13.2024C70.0422 13.2024 70.4722 12.4351 70.4722 11.5197C70.4722 10.7061 70.0918 9.86478 69.3145 9.86478C68.5372 9.86478 68.1485 10.6691 68.1485 11.5567Z" fill="#1A1A1A"/>
<path d="M72.1181 9.56835C72.3414 9.52212 72.6391 9.49438 73.0112 9.49438C73.4743 9.49438 73.8133 9.61457 74.0283 9.82723C74.2185 10.0214 74.3426 10.3172 74.3426 10.6778C74.3426 11.0384 74.2433 11.3343 74.0614 11.5469C73.8051 11.8428 73.4081 11.9907 72.9533 11.9907C72.8127 11.9907 72.6804 11.9907 72.5729 11.9537V13.5809H72.1016V9.5776L72.1181 9.56835ZM72.5812 11.5191C72.6804 11.5469 72.8127 11.5654 72.9699 11.5654C73.5322 11.5654 73.8795 11.251 73.8795 10.7056C73.8795 10.1601 73.5322 9.9012 73.0195 9.9012C72.8127 9.9012 72.6639 9.91968 72.5812 9.94742V11.5191Z" fill="#1A1A1A"/>
<path d="M78.609 11.5013C78.609 12.8881 77.8482 13.6369 76.922 13.6369C75.9959 13.6369 75.293 12.8048 75.293 11.5752C75.293 10.2901 76.0041 9.44873 76.9717 9.44873C77.9392 9.44873 78.609 10.2993 78.609 11.5013ZM75.7974 11.5567C75.7974 12.4258 76.2191 13.2024 76.9551 13.2024C77.6911 13.2024 78.1128 12.4351 78.1128 11.5197C78.1128 10.7061 77.7325 9.86478 76.9551 9.86478C76.1778 9.86478 75.7891 10.6691 75.7891 11.5567H75.7974Z" fill="#1A1A1A"/>
<path d="M79.7598 9.51392H80.2311V13.1289H81.7775V13.5635H79.7598V9.51392Z" fill="#1A1A1A"/>
<path d="M83.3073 9.51392V13.5635H82.8359V9.51392H83.3073Z" fill="#1A1A1A"/>
<path d="M85.3498 9.95771H84.25V9.51392H86.9376V9.95771H85.8295V13.5635H85.3581V9.95771H85.3498Z" fill="#1A1A1A"/>
<path d="M88.0612 12.2961L87.6808 13.572H87.2012L88.4416 9.52246H89.0039L90.2443 13.572H89.7482L89.3595 12.2961H88.0777H88.0612ZM89.252 11.8893L88.8964 10.7244C88.8137 10.4563 88.7641 10.2159 88.7062 9.98474H88.6979C88.6401 10.2159 88.5904 10.4748 88.516 10.7151L88.1604 11.8893H89.2603H89.252Z" fill="#1A1A1A"/>
<path d="M91.3027 13.572V9.52246H91.8154L92.9732 11.575C93.2378 12.0464 93.4528 12.481 93.6182 12.8879H93.6347C93.5934 12.3423 93.5768 11.8523 93.5768 11.2144V9.52246H94.0151V13.572H93.5438L92.3943 11.5195C92.1379 11.0665 91.8981 10.6042 91.7245 10.1696H91.7079C91.7327 10.6874 91.741 11.1775 91.741 11.8431V13.572H91.3027Z" fill="#1A1A1A"/>
<path d="M53.0645 16.7817H53.5358V20.3967H55.0822V20.8313H53.0645V16.7817Z" fill="#1A1A1A"/>
<path d="M56.612 16.7817V20.8313H56.1406V16.7817H56.612Z" fill="#1A1A1A"/>
<path d="M57.9692 16.8373C58.1759 16.7819 58.4985 16.7449 58.821 16.7449C59.2923 16.7449 59.59 16.8373 59.8133 17.0408C60.0035 17.1979 60.1193 17.4383 60.1193 17.7527C60.1193 18.1502 59.8795 18.4923 59.5073 18.6402V18.6588C59.8546 18.7512 60.2516 19.0655 60.2516 19.6665C60.2516 20.0178 60.1275 20.286 59.9373 20.4801C59.6893 20.739 59.2841 20.8592 58.6887 20.8592C58.3661 20.8592 58.1181 20.8314 57.9609 20.813V16.8281L57.9692 16.8373ZM58.4406 18.5015H58.8623C59.3502 18.5015 59.6396 18.2057 59.6396 17.8173C59.6396 17.3459 59.3254 17.1517 58.8458 17.1517C58.6308 17.1517 58.5067 17.1702 58.4323 17.1887V18.5015H58.4406ZM58.4406 20.4339C58.5398 20.4523 58.6638 20.4617 58.8292 20.4617C59.3171 20.4617 59.7637 20.2582 59.7637 19.6758C59.7637 19.1302 59.3419 18.8899 58.8292 18.8899H58.4406V20.4339Z" fill="#1A1A1A"/>
<path d="M61.4258 16.8366C61.6656 16.7904 62.0046 16.7534 62.3272 16.7534C62.8233 16.7534 63.1541 16.8644 63.3774 17.0863C63.551 17.262 63.6585 17.5393 63.6585 17.8629C63.6585 18.3899 63.3608 18.7505 62.9804 18.8892V18.9076C63.2533 19.0186 63.4187 19.3052 63.5097 19.7213C63.6255 20.2852 63.7164 20.6735 63.7908 20.8308H63.3112C63.2533 20.7105 63.1706 20.3684 63.0714 19.86C62.9639 19.3052 62.7654 19.0925 62.3354 19.0741H61.8971V20.8308H61.4258V16.8366ZM61.8971 18.6765H62.3768C62.8812 18.6765 63.1954 18.3714 63.1954 17.9092C63.1954 17.3822 62.8564 17.1602 62.3602 17.1602C62.137 17.1602 61.9798 17.1788 61.8971 17.2065V18.6858V18.6765Z" fill="#1A1A1A"/>
<path d="M65.4694 19.5554L65.089 20.8313H64.6094L65.8498 16.7817H66.4121L67.6525 20.8313H67.1564L66.7677 19.5554H65.4859H65.4694ZM66.6685 19.1486L66.3046 17.9836C66.2219 17.7155 66.1723 17.4752 66.1144 17.2441H66.1061C66.0483 17.4752 65.9986 17.7341 65.9242 17.9744L65.5686 19.1486H66.6685Z" fill="#1A1A1A"/>
<path d="M68.7188 16.8366C68.9586 16.7904 69.2976 16.7534 69.6201 16.7534C70.1163 16.7534 70.4471 16.8644 70.6703 17.0863C70.844 17.262 70.9515 17.5393 70.9515 17.8629C70.9515 18.3899 70.6538 18.7505 70.2734 18.8892V18.9076C70.5463 19.0186 70.7117 19.3052 70.8027 19.7213C70.9184 20.2852 71.0094 20.6735 71.0838 20.8308H70.6042C70.5463 20.7105 70.4636 20.3684 70.3644 19.86C70.2569 19.3052 70.0584 19.0925 69.6284 19.0741H69.1901V20.8308H68.7188V16.8366ZM69.1818 18.6765H69.6615C70.1659 18.6765 70.4801 18.3714 70.4801 17.9092C70.4801 17.3822 70.1411 17.1602 69.6449 17.1602C69.4217 17.1602 69.2645 17.1788 69.1818 17.2065V18.6858V18.6765Z" fill="#1A1A1A"/>
<path d="M72.8955 20.8313V19.1116L71.7461 16.7817H72.2836L72.7963 17.9005C72.9286 18.2056 73.0444 18.4552 73.1602 18.7325H73.1684C73.2677 18.4644 73.3917 18.2056 73.5323 17.9005L74.0533 16.7817H74.5825L73.3752 19.1116V20.8405H72.9038L72.8955 20.8313Z" fill="#1A1A1A"/>
<path d="M43.3653 0H24.5192V3.15273H41.9181L41.8851 11.0577H23.5352V14.2104H32.4827V23.1231H35.3026V14.2104H45.8048V11.0577H44.7049L44.738 1.53477C44.738 0.693417 44.1261 0 43.3653 0Z" fill="#1A1A1A"/>
</g>
<path d="M216.912 35.3604C215.445 37.7424 212.49 40.0749 208.178 40.9184V37.9409C212.845 36.7251 215.378 33.6483 215.378 28.6857V27.1226H218.423V28.6857C218.423 33.6483 220.979 36.7251 225.645 37.9409V40.9184C221.334 40.0749 218.379 37.7424 216.912 35.3604ZM207.867 45.6826H226.001V48.6353H207.867V45.6826Z" fill="#1A1A1A"/>
<path d="M194.757 34.9897V27.2481H197.779V48.1157H187.734V27.2481H190.757V34.9897H194.757ZM194.757 37.9425H190.757V45.1631H194.757V37.9425ZM204.157 49.6293H201.112V26.8511H204.157V49.6293Z" fill="#1A1A1A"/>
<path d="M172.024 43.2773C170.979 45.5104 168.579 47.3217 166.135 48.1157V44.9893C168.49 43.7983 170.513 41.7141 170.513 35.3123V27.1241H173.557V35.3123C173.557 41.7141 175.579 43.7983 177.913 44.9893V48.1157C175.468 47.3217 173.09 45.4856 172.024 43.2773ZM183.38 49.6293H180.335V37.7687H175.868V34.8161H180.335V26.8511H183.38V49.6293Z" fill="#1A1A1A"/>
<path d="M149.6 37.0477H162.867V40.0252H146.555V32.0354H159.6V30.0752H146.555V27.1226H162.645V34.9634H149.6V37.0477ZM145.533 41.9854H163.667V44.963H156.089V50H153.044V44.963H145.533V41.9854Z" fill="#1A1A1A"/>
<path d="M128.823 30.0752V35.4844H142.067V38.4123H125.778V27.1226H141.867V30.0752H128.823ZM124.756 41.117H142.89V44.0698H135.312V50H132.267V44.0698H124.756V41.117Z" fill="#1A1A1A"/>
<path d="M112.822 28.662V31.5402H110.045V31.6396C110.045 35.2622 110.934 36.354 113.089 36.9743V39.9767C111.134 39.6292 109.578 38.6863 108.6 37.3961C107.622 38.6863 105.956 39.8774 104 40.2248V37.2224C106.178 36.6269 107.045 35.3118 107.045 31.6396V31.5402H104.267V28.662H107.045V26.1807H110.045V28.662H112.822ZM118.423 40.5473V34.9644H116.845V40.4233H113.978V26.9747H116.845V32.0117H118.423V26.8507H121.334V40.5473H118.423ZM118.289 44.4678H105.578V41.5399H121.334V50.0011H118.289V44.4678Z" fill="#1A1A1A"/>
</g>
<defs>
<clipPath id="clip0_750_2678">
<rect width="226" height="50" fill="white"/>
</clipPath>
</defs>
</svg>
