<svg width="239" height="50" viewBox="0 0 239 50" fill="none" xmlns="http://www.w3.org/2000/svg">
<g clip-path="url(#clip0_750_2576)">
<mask id="mask0_750_2576" style="mask-type:luminance" maskUnits="userSpaceOnUse" x="0" y="0" width="58" height="50">
<path d="M58 0H0V50H58V0Z" fill="white"/>
</mask>
<g mask="url(#mask0_750_2576)">
<path d="M0 38.2276L18.5045 6.5419L21.1018 11.4035L6.28988 36.5861C6.28988 36.5861 0.970865 37.7045 0 38.2276Z" fill="#10833C"/>
<path d="M28.1211 2.52686L8.40503 36.1878C8.40503 36.1878 11.7906 35.8632 12.3964 35.9263L29.9383 6.27899L28.1211 2.52686Z" fill="#10833C"/>
<path d="M35.5907 0.543472L14.8457 36.3781C14.8457 36.3781 31.2342 35.5935 39.6484 37.1628C39.6484 37.1628 56.7671 39.7966 52.2281 45.515C52.2281 45.515 50.2947 47.815 43.5153 49.4565C43.5153 49.4565 55.8544 48.798 57.6052 42.4213C57.6052 42.4213 58.3272 40.446 57.3065 38.7413L35.5907 0.543472Z" fill="#10833C"/>
<path d="M5.45042 41.7173H6.93576C7.5996 41.7173 8.64514 41.9158 8.64514 44.4322C8.64514 45.8302 8.22195 47.2824 6.96065 47.2824H5.45042V41.7173ZM3.93188 48.7435H7.15151C9.59941 48.7435 10.2301 46.1188 10.2301 44.2969C10.2301 42.6914 9.71558 40.2471 7.20959 40.2471H3.93188V48.7435Z" fill="#10833C"/>
<path d="M13.9231 42.1683H13.9397L14.8608 45.5326H12.9689L13.9231 42.1683ZM12.5623 46.9937H15.3006L15.7736 48.7435H17.4581L14.8442 40.2471H13.0518L10.4048 48.7435H12.0395L12.5623 46.9937Z" fill="#10833C"/>
<path d="M23.9134 41.7534H19.9719V43.5392H23.5898V45.0455H19.9719V47.2463H24.0877V48.7526H18.4534V40.2561H23.9134V41.7534Z" fill="#10833C"/>
<path d="M28.8342 44.1705H31.9376V48.7525H30.9004L30.7427 47.6881C30.3527 48.2113 29.7801 48.978 28.4276 48.978C26.6352 48.978 25.0171 47.5078 25.0171 44.5313C25.0171 42.2134 26.1456 40.0216 28.6433 40.0306C30.917 40.0306 31.8214 41.7263 31.9044 42.8988H30.3527C30.3527 42.5651 29.8216 41.5007 28.7263 41.5007C27.6227 41.5007 26.5937 42.3756 26.5937 44.5584C26.5937 46.8764 27.6973 47.4807 28.7512 47.4807C29.0914 47.4807 30.2282 47.3274 30.5518 45.6137H28.8259V44.1705H28.8342Z" fill="#10833C"/>
<path d="M39.3483 45.7761C39.3483 48.0129 38.17 48.969 36.2947 48.969C35.6142 48.969 34.5936 48.7796 33.938 47.9408C33.5314 47.4176 33.3821 46.7322 33.3572 45.8844V40.2561H34.9421V45.7671C34.9421 46.9486 35.5395 47.4717 36.2698 47.4717C37.3319 47.4717 37.7717 46.8765 37.7717 45.8483V40.2471H39.3566V45.7761H39.3483Z" fill="#10833C"/>
</g>
<path d="M76.918 37.0696H70.496V13.3022H79.232V16.6652H73.98V33.7065H77.62C79.362 33.7065 80.662 33.4522 81.416 32.8022V12.9913H84.874V22.7978H86.72V12.85H90.178V38.7935H86.72V26.1891H84.874V38.4826H81.416V35.9674C80.61 36.6739 79.076 37.0696 76.918 37.0696ZM110.639 16.5239H95.247V13.1609H114.201V19.0391C114.201 21.6109 114.019 24.0978 113.655 26.0196H110.119C110.483 24.0978 110.639 21.6109 110.639 19.4913V16.5239ZM94.181 27.8848H115.397V31.2761H106.531V39.2174H102.969V31.2761H94.181V27.8848ZM123.43 21.5261H138.484V24.55H130.814V25.9065H139.836V29.0435H118.36V25.9065H127.278V24.55H119.868V13.1609H138.328V16.213H123.43V17.4H138.068V20.3957H123.43V21.5261ZM119.452 34.8935C119.452 33.1978 120.388 32.0674 121.948 31.3609C123.69 30.5413 126.238 30.2587 129.124 30.2587C132.01 30.2587 134.558 30.5413 136.3 31.3609C137.86 32.0674 138.796 33.1978 138.796 34.8935C138.796 36.5891 137.86 37.6913 136.3 38.4261C134.558 39.2457 132.01 39.5283 129.124 39.5283C126.238 39.5283 123.69 39.2457 121.948 38.4261C120.388 37.6913 119.452 36.5891 119.452 34.8935ZM123.014 34.8935C123.014 35.2891 123.274 35.6 123.768 35.7978C124.756 36.25 126.68 36.363 129.124 36.363C131.568 36.363 133.492 36.25 134.506 35.7978C134.974 35.6 135.234 35.2891 135.234 34.8935C135.234 34.4978 134.974 34.187 134.506 33.9891C133.492 33.537 131.568 33.4239 129.124 33.4239C126.68 33.4239 124.756 33.537 123.768 33.9891C123.274 34.187 123.014 34.4978 123.014 34.8935ZM147.453 12.087H151.015V14.3761H155.929V17.5413H142.331V14.3761H147.453V12.087ZM143.033 22.9109C143.033 21.4696 143.605 20.3109 144.619 19.5196C145.711 18.6435 147.297 18.1913 149.169 18.1913C151.067 18.1913 152.653 18.6435 153.745 19.5196C154.733 20.3109 155.331 21.4696 155.331 22.9109C155.331 24.3804 154.733 25.5109 153.745 26.3022C152.653 27.1783 151.067 27.6304 149.169 27.6304C147.297 27.6304 145.711 27.1783 144.619 26.3022C143.605 25.5109 143.033 24.3804 143.033 22.9109ZM146.465 22.9109C146.465 23.3348 146.647 23.7022 146.959 23.9848C147.427 24.4087 148.233 24.6065 149.169 24.6065C150.131 24.6065 150.937 24.4087 151.405 23.9848C151.717 23.7022 151.899 23.3348 151.899 22.9109C151.899 22.487 151.717 22.1196 151.405 21.8652C150.937 21.4413 150.131 21.2152 149.169 21.2152C148.233 21.2152 147.427 21.4413 146.959 21.8652C146.647 22.1196 146.465 22.487 146.465 22.9109ZM162.169 18.8696H165.471V22.2609H162.169V27.6022H158.607V12.85H162.169V18.8696ZM158.607 28.6196H162.169V39.0761H144.411V28.6196H147.973V30.8239H158.607V28.6196ZM147.973 34.0457V35.8261H158.607V34.0457H147.973ZM171.866 16.6935V24.2674H187.258V27.6587H179.536V34.3H188.324V37.663H167.108V34.3H176V27.6587H168.304V13.3022H187.128V16.6935H171.866ZM198.099 31.5587C196.877 34.1022 194.069 36.1652 191.209 37.0696V33.5087C193.965 32.1522 196.331 29.7783 196.331 22.487V13.1609H199.893V22.487C199.893 29.7783 202.259 32.1522 204.989 33.5087V37.0696C202.129 36.1652 199.347 34.0739 198.099 31.5587ZM211.385 38.7935H207.823V25.2848H202.597V21.9217H207.823V12.85H211.385V38.7935ZM225.268 16.4957H216.532V13.1609H228.83V18.9261C228.83 20.3674 228.726 21.9217 228.492 23.2217H224.982C225.164 21.95 225.268 20.4239 225.268 19.0674V16.4957ZM235.096 20.1696H238.476V23.5044H235.096V31.5022H231.534V27.5739C230.702 28.3087 229.298 28.6761 226.646 28.6761H215.57V25.313H218.898V19.5478H222.46V25.313H227.608C229.584 25.313 230.728 25.0304 231.534 24.4087V12.85H235.096V20.1696ZM217.338 39.0761V30.5413H220.9V35.713H235.512V39.0761H217.338Z" fill="#2D2D2D"/>
</g>
<defs>
<clipPath id="clip0_750_2576">
<rect width="239" height="50" fill="white"/>
</clipPath>
</defs>
</svg>
