<svg width="202" height="50" viewBox="0 0 202 50" fill="none" xmlns="http://www.w3.org/2000/svg">
<g clip-path="url(#clip0_750_2591)">
<mask id="mask0_750_2591" style="mask-type:luminance" maskUnits="userSpaceOnUse" x="0" y="0" width="202" height="50">
<path d="M202 0.543457H0V49.4565H202V0.543457Z" fill="white"/>
</mask>
<g mask="url(#mask0_750_2591)">
<path d="M88.3002 19.206H85.1964V11.4237H82.0827V26.9991H72.1567V15.3687H79.5839V11.9841H69.043V28.7346C69.043 29.64 69.7173 30.3837 70.5601 30.3837H82.0926V36.2798H85.2063V22.5906H88.3101V36.2798H91.4238V11.4237H88.3101V19.206H88.3002Z" fill="#1A1A1A"/>
<path d="M116.468 11.4237H95.6337V14.8083H114.871L114.831 23.302H94.543V26.6865H104.429V36.269H107.543V26.6865H119.155V23.302H117.935L117.975 13.0728C117.985 12.1674 117.301 11.4237 116.468 11.4237Z" fill="#1A1A1A"/>
<path d="M135.396 25.6195H145.025V22.2349H125.787V14.8083H145.025V11.4237H122.674V23.9811C122.674 24.8865 123.348 25.6302 124.191 25.6302H132.282V32.8952H121.652V36.2798H145.977V32.8845H135.396V25.6195Z" fill="#1A1A1A"/>
<path d="M201.476 15.4766H198.729V11.413H195.615V20.9846H191.659V13.073C191.659 12.1675 190.985 11.4237 190.142 11.4237H176.715V14.8083H188.545V20.9846H183.2V17.1688H180.087V20.9846H176.438V24.3692H195.625V32.8845H180.602V27.0962H177.489V34.6307C177.489 35.5361 178.163 36.2798 179.006 36.2798H198.719V35.1481H198.749V18.8612H201.496V15.4766H201.476Z" fill="#1A1A1A"/>
<path d="M169.847 11.4237V17.3521H164.383V20.7366H169.847V22.8924H169.876V36.269H172.96V11.4237H169.847Z" fill="#1A1A1A"/>
<path d="M157.428 11.4321H154.394C152.044 11.4321 150.041 13.34 149.724 15.9808L148.375 36.2882H151.459L152.778 16.315C152.887 15.4418 153.571 14.7843 154.384 14.7843H157.419C158.232 14.7843 158.926 15.4418 159.015 16.2179L160.344 36.2882H163.428L162.069 15.8838C161.782 13.34 159.779 11.4321 157.428 11.4321Z" fill="#10833C"/>
<path d="M155.935 35.3193C155.727 35.3193 155.559 35.136 155.559 34.9097V17.6204C155.559 17.3941 155.727 17.2108 155.935 17.2108C156.144 17.2108 156.312 17.3941 156.312 17.6204V34.9097C156.312 35.136 156.144 35.3193 155.935 35.3193Z" fill="#C9CACA"/>
<path d="M153.664 35.3188C153.456 35.308 153.297 35.1248 153.297 34.8985L153.753 18.342C153.763 18.1157 153.932 17.9432 154.14 17.9432C154.348 17.954 154.507 18.1373 154.507 18.3637L154.051 34.92C154.051 35.1464 153.872 35.3295 153.664 35.3188Z" fill="#C9CACA"/>
<path d="M158.226 35.3188C158.434 35.308 158.593 35.1248 158.593 34.8985L158.136 18.342C158.127 18.1157 157.958 17.9432 157.75 17.9432C157.541 17.954 157.383 18.1373 157.383 18.3637L157.839 34.92C157.849 35.1464 158.027 35.3295 158.226 35.3188Z" fill="#C9CACA"/>
<path d="M70.5039 41.2168C70.8708 41.1522 71.2972 41.109 71.7732 41.109C72.626 41.109 73.2408 41.3354 73.6473 41.7342C74.0638 42.1438 74.3018 42.7151 74.3018 43.5235C74.3018 44.3319 74.0638 45.0002 73.6374 45.4529C73.2011 45.9164 72.4871 46.1643 71.5848 46.1643C71.1485 46.1643 70.8014 46.1427 70.5039 46.1104V41.2168ZM71.0989 45.6146C71.2476 45.6362 71.4658 45.6469 71.7038 45.6469C72.9829 45.6469 73.6672 44.8816 73.6672 43.5342C73.6771 42.3593 73.0524 41.6156 71.793 41.6156C71.4856 41.6156 71.2476 41.6479 71.089 41.6803V45.6146H71.0989Z" fill="#1A1A1A"/>
<path d="M77.083 44.545L76.607 46.108H75.9922L77.5689 41.1282H78.2828L79.8595 46.108H79.2249L78.7291 44.545H77.083ZM78.6101 44.0493L78.1539 42.6157C78.0548 42.2923 77.9853 41.9905 77.9159 41.7102H77.8961C77.8267 42.0012 77.7573 42.3138 77.6581 42.6157L77.202 44.06H78.6101V44.0493Z" fill="#1A1A1A"/>
<path d="M84.2961 43.7796H82.5111V45.5797H84.5142V46.1186H81.9062V41.1388H84.4051V41.6777H82.5111V43.2514H84.2961V43.7796Z" fill="#1A1A1A"/>
<path d="M90.1807 45.891C89.913 45.9987 89.3775 46.1605 88.7528 46.1605C88.0487 46.1605 87.4736 45.9664 87.0274 45.503C86.6307 45.0933 86.3828 44.425 86.3828 43.6489C86.3828 42.1614 87.3348 41.0836 88.8817 41.0836C89.4172 41.0836 89.8436 41.213 90.0419 41.3099L89.8931 41.8381C89.6452 41.7087 89.3378 41.6225 88.8718 41.6225C87.7512 41.6225 87.0174 42.3771 87.0174 43.6274C87.0174 44.8885 87.7215 45.6323 88.8024 45.6323C89.1891 45.6323 89.4568 45.5784 89.5956 45.503V44.0155H88.6635V43.4981H90.1807V45.891Z" fill="#1A1A1A"/>
<path d="M93.0619 41.1388V44.0922C93.0619 45.2024 93.5181 45.6766 94.1329 45.6766C94.8072 45.6766 95.2534 45.1916 95.2534 44.0922V41.1388H95.8583V44.049C95.8583 45.5797 95.1146 46.194 94.113 46.194C93.171 46.194 92.457 45.6227 92.457 44.0706V41.1388H93.0619Z" fill="#1A1A1A"/>
<path d="M104.991 43.9304C104.961 43.2406 104.911 42.3891 104.911 41.7855H104.901C104.733 42.3567 104.554 42.9927 104.316 43.6718L103.503 46.0863H103.047L102.293 43.7149C102.075 43.0035 101.897 42.3675 101.768 41.7855H101.758C101.748 42.4106 101.708 43.2299 101.669 43.9843L101.55 46.1186H100.984L101.302 41.1388H102.065L102.849 43.5425C103.037 44.1568 103.196 44.7065 103.315 45.2239H103.325C103.453 44.7174 103.612 44.1784 103.82 43.5425L104.643 41.1388H105.407L105.695 46.1186H105.109L104.991 43.9304Z" fill="#1A1A1A"/>
<path d="M110.374 43.7796H108.589V45.5797H110.592V46.1186H107.984V41.1388H110.483V41.6777H108.589V43.2514H110.374V43.7796Z" fill="#1A1A1A"/>
<path d="M113.717 41.6779H112.309V41.1282H115.73V41.6779H114.322V46.108H113.717V41.6779Z" fill="#1A1A1A"/>
<path d="M117.625 41.2062C117.922 41.1523 118.369 41.0984 118.765 41.0984C119.4 41.0984 119.816 41.2277 120.104 41.5081C120.332 41.7344 120.471 42.0685 120.471 42.4565C120.471 43.1033 120.084 43.5452 119.608 43.7177V43.7393C119.955 43.8686 120.173 44.2244 120.283 44.7416C120.431 45.4315 120.54 45.9166 120.64 46.1107H120.025C119.945 45.9597 119.846 45.5394 119.727 44.9249C119.588 44.2351 119.341 43.9764 118.795 43.9548H118.23V46.1107H117.635V41.2062H117.625ZM118.22 43.4698H118.835C119.469 43.4698 119.876 43.0925 119.876 42.5212C119.876 41.8745 119.44 41.5943 118.815 41.5943C118.527 41.5943 118.329 41.6158 118.23 41.6482V43.4698H118.22Z" fill="#1A1A1A"/>
<path d="M126.656 43.5763C126.656 45.2793 125.694 46.1955 124.514 46.1955C123.284 46.1955 122.441 45.1715 122.441 43.6625C122.441 42.078 123.344 41.0432 124.583 41.0432C125.843 41.054 126.656 42.0888 126.656 43.5763ZM123.066 43.6517C123.066 44.7188 123.602 45.6781 124.544 45.6781C125.486 45.6781 126.021 44.7403 126.021 43.6085C126.021 42.6169 125.545 41.5821 124.544 41.5821C123.542 41.5821 123.066 42.563 123.066 43.6517Z" fill="#1A1A1A"/>
<path d="M128.809 41.1955C129.096 41.1415 129.473 41.0984 129.949 41.0984C130.534 41.0984 130.97 41.2494 131.248 41.5081C131.496 41.7451 131.655 42.1009 131.655 42.5536C131.655 43.0063 131.536 43.362 131.298 43.6207C130.98 43.9872 130.465 44.1705 129.889 44.1705C129.711 44.1705 129.542 44.1597 129.413 44.1273V46.1214H128.819V41.1955H128.809ZM129.404 43.5991C129.532 43.6314 129.701 43.6531 129.899 43.6531C130.623 43.6531 131.06 43.265 131.06 42.5968C131.06 41.9284 130.623 41.6158 129.969 41.6158C129.711 41.6158 129.513 41.6374 129.404 41.6697V43.5991Z" fill="#1A1A1A"/>
<path d="M137.773 43.5763C137.773 45.2793 136.811 46.1955 135.631 46.1955C134.401 46.1955 133.559 45.1715 133.559 43.6625C133.559 42.078 134.461 41.0432 135.7 41.0432C136.96 41.054 137.773 42.0888 137.773 43.5763ZM134.183 43.6517C134.183 44.7188 134.719 45.6781 135.661 45.6781C136.603 45.6781 137.138 44.7403 137.138 43.6085C137.138 42.6169 136.662 41.5821 135.661 41.5821C134.659 41.5821 134.183 42.563 134.183 43.6517Z" fill="#1A1A1A"/>
<path d="M139.918 41.1388H140.523V45.5797H142.496V46.1186H139.918V41.1388Z" fill="#1A1A1A"/>
<path d="M145.128 41.1388V46.1186H144.523V41.1388H145.128Z" fill="#1A1A1A"/>
<path d="M148.424 41.6779H147.016V41.1282H150.437V41.6779H149.029V46.108H148.424V41.6779Z" fill="#1A1A1A"/>
<path d="M152.56 44.545L152.084 46.108H151.469L153.045 41.1282H153.759L155.336 46.108H154.701L154.206 44.545H152.56ZM154.087 44.0493L153.63 42.6157C153.521 42.2923 153.462 41.9905 153.392 41.7102H153.383C153.313 42.0012 153.244 42.3138 153.145 42.6157L152.688 44.06H154.087V44.0493Z" fill="#1A1A1A"/>
<path d="M157.387 46.1186V41.1388H158.041L159.519 43.661C159.856 44.243 160.133 44.7712 160.342 45.2778L160.362 45.2671C160.312 44.5988 160.292 43.9951 160.292 43.2191V41.1388H160.857V46.1186H160.252L158.785 43.5963C158.468 43.0466 158.16 42.4753 157.932 41.9364L157.912 41.9472C157.952 42.5724 157.952 43.176 157.952 43.9951V46.1186H157.387Z" fill="#1A1A1A"/>
<path d="M166.094 41.1388H166.699V45.5797H168.672V46.1186H166.094V41.1388Z" fill="#1A1A1A"/>
<path d="M171.296 41.1388V46.1186H170.691V41.1388H171.296Z" fill="#1A1A1A"/>
<path d="M173.719 41.2168C173.977 41.1522 174.403 41.109 174.81 41.109C175.404 41.109 175.791 41.2168 176.069 41.4755C176.307 41.6696 176.456 41.9605 176.456 42.3593C176.456 42.8444 176.158 43.2648 175.672 43.448V43.4696C176.109 43.5774 176.624 43.9762 176.624 44.7091C176.624 45.1403 176.466 45.4744 176.228 45.7009C175.91 46.0134 175.395 46.1643 174.641 46.1643C174.234 46.1643 173.917 46.1319 173.719 46.1104V41.2168ZM174.314 43.254H174.859C175.484 43.254 175.851 42.8875 175.851 42.4132C175.851 41.8419 175.444 41.6049 174.839 41.6049C174.562 41.6049 174.403 41.6264 174.314 41.6479V43.254ZM174.314 45.6254C174.443 45.6469 174.601 45.6577 174.81 45.6577C175.424 45.6577 175.999 45.4098 175.999 44.6876C175.999 44.0193 175.454 43.7282 174.81 43.7282H174.314V45.6254Z" fill="#1A1A1A"/>
<path d="M178.805 41.2062C179.102 41.1523 179.548 41.0984 179.945 41.0984C180.58 41.0984 180.996 41.2277 181.284 41.5081C181.512 41.7344 181.651 42.0685 181.651 42.4565C181.651 43.1033 181.264 43.5452 180.788 43.7177V43.7393C181.135 43.8686 181.353 44.2244 181.462 44.7416C181.611 45.4315 181.72 45.9166 181.819 46.1107H181.204C181.125 45.9597 181.026 45.5394 180.907 44.9249C180.768 44.2351 180.52 43.9764 179.975 43.9548H179.41V46.1107H178.815V41.2062H178.805ZM179.4 43.4698H180.014C180.649 43.4698 181.056 43.0925 181.056 42.5212C181.056 41.8745 180.619 41.5943 179.995 41.5943C179.707 41.5943 179.509 41.6158 179.41 41.6482V43.4698H179.4Z" fill="#1A1A1A"/>
<path d="M184.645 44.545L184.169 46.108H183.555L185.131 41.1282H185.845L187.422 46.108H186.787L186.292 44.545H184.645ZM186.173 44.0493L185.716 42.6157C185.607 42.2923 185.548 41.9905 185.478 41.7102H185.469C185.399 42.0012 185.33 42.3138 185.231 42.6157L184.774 44.06H186.173V44.0493Z" fill="#1A1A1A"/>
<path d="M189.477 41.2062C189.774 41.1523 190.22 41.0984 190.617 41.0984C191.252 41.0984 191.668 41.2277 191.956 41.5081C192.184 41.7344 192.322 42.0685 192.322 42.4565C192.322 43.1033 191.936 43.5452 191.46 43.7177V43.7393C191.807 43.8686 192.025 44.2244 192.134 44.7416C192.283 45.4315 192.392 45.9166 192.491 46.1107H191.876C191.797 45.9597 191.698 45.5394 191.579 44.9249C191.44 44.2351 191.192 43.9764 190.647 43.9548H190.081V46.1107H189.486V41.2062H189.477ZM190.072 43.4698H190.686C191.321 43.4698 191.728 43.0925 191.728 42.5212C191.728 41.8745 191.291 41.5943 190.666 41.5943C190.379 41.5943 190.181 41.6158 190.081 41.6482V43.4698H190.072Z" fill="#1A1A1A"/>
<path d="M195.483 46.1186V44.006L194.016 41.1388H194.7L195.354 42.5077C195.523 42.8849 195.672 43.1867 195.81 43.5316H195.82C195.949 43.2083 196.108 42.8849 196.286 42.5077L196.951 41.1388H197.625L196.088 43.9951V46.1186H195.483Z" fill="#1A1A1A"/>
<path d="M1 38.2264L19.5045 6.54077L22.1018 11.4023L7.28988 36.5849C7.28988 36.5849 1.97086 37.7033 1 38.2264Z" fill="#10833C"/>
<path d="M29.1223 2.52625L9.40625 36.1872C9.40625 36.1872 12.7918 35.8625 13.3976 35.9257L30.9395 6.27838L29.1223 2.52625Z" fill="#10833C"/>
<path d="M36.5887 0.543457L15.8438 36.3781C15.8438 36.3781 32.2323 35.5935 40.6464 37.1628C40.6464 37.1628 57.7652 39.7966 53.2262 45.515C53.2262 45.515 51.2928 47.815 44.5133 49.4565C44.5133 49.4565 56.8524 48.798 58.6033 42.4213C58.6033 42.4213 59.3252 40.446 58.3046 38.7413L36.5887 0.543457Z" fill="#10833C"/>
<path d="M6.45213 41.7173H7.93747C8.60131 41.7173 9.64685 41.9158 9.64685 44.4322C9.64685 45.8302 9.22366 47.2824 7.96236 47.2824H6.45213V41.7173ZM4.93359 48.7435H8.15321C10.6011 48.7435 11.2318 46.1188 11.2318 44.2969C11.2318 42.6914 10.7173 40.2471 8.2113 40.2471H4.93359V48.7435Z" fill="#10833C"/>
<path d="M14.9246 42.1683H14.9412L15.8623 45.5326H13.9703L14.9246 42.1683ZM13.5637 46.9937H16.3021L16.775 48.7435H18.4595L15.8457 40.2471H14.0533L11.4062 48.7435H13.041L13.5637 46.9937Z" fill="#10833C"/>
<path d="M24.9132 41.7528H20.9717V43.5387H24.5896V45.045H20.9717V47.2457H25.0875V48.752H19.4531V40.2556H24.9132V41.7528Z" fill="#10833C"/>
<path d="M29.8327 44.1706H32.9362V48.7525H31.8989L31.7412 47.6882C31.3512 48.2113 30.7787 48.9781 29.4261 48.9781C27.6337 48.9781 26.0156 47.5078 26.0156 44.5313C26.0156 42.2134 27.1442 40.0216 29.6418 40.0307C31.9155 40.0307 32.82 41.7263 32.903 42.8988H31.3512C31.3512 42.5651 30.8202 41.5008 29.7248 41.5008C28.6212 41.5008 27.5922 42.3757 27.5922 44.5584C27.5922 46.8764 28.6959 47.4808 29.7497 47.4808C30.0899 47.4808 31.2268 47.3274 31.5504 45.6137H29.8244V44.1706H29.8327Z" fill="#10833C"/>
<path d="M40.3466 45.7761C40.3466 48.0129 39.1683 48.969 37.293 48.969C36.6125 48.969 35.5919 48.7796 34.9363 47.9408C34.5297 47.4176 34.3804 46.7322 34.3555 45.8844V40.2561H35.9404V45.7671C35.9404 46.9486 36.5378 47.4717 37.2681 47.4717C38.3302 47.4717 38.77 46.8765 38.77 45.8483V40.2471H40.3549V45.7761H40.3466Z" fill="#10833C"/>
</g>
</g>
<defs>
<clipPath id="clip0_750_2591">
<rect width="202" height="50" fill="white"/>
</clipPath>
</defs>
</svg>
