<svg width="197" height="50" viewBox="0 0 197 50" fill="none" xmlns="http://www.w3.org/2000/svg">
<g clip-path="url(#clip0_750_2638)">
<path d="M187.906 0H187.847C179.78 0.286462 172.375 2.38821 167.492 5.76659C162.61 2.38821 155.208 0.286462 147.129 0H137.27V9.45323H140.637V3.32544H147.031C154.937 3.60879 162.188 5.78216 166.428 9.14186L167.483 9.97633L168.538 9.14186C172.787 5.79461 180.038 3.63681 187.935 3.32544H193.623V30.1345C182.315 31.436 175.65 35.7797 172.047 39.2016C170.075 41.0391 168.437 43.1983 167.206 45.5848C162.264 42.2749 155.151 40.2914 147.129 40.0112H139.008L135.597 43.3491H147.031C154.937 43.6325 162.188 45.8089 166.428 49.1655L167.483 50L168.538 49.1655C172.778 45.8089 180.029 43.6325 187.925 43.3491H196.987V0H187.906ZM193.623 33.4942V40.0112H187.847C182.492 40.2011 177.452 41.1695 173.206 42.8135C173.622 42.3558 174.06 41.9106 174.517 41.4871C179.065 37.2369 185.657 34.4781 193.623 33.4942Z" fill="#82C341"/>
<path d="M184.42 19.1555C182.293 13.4823 183.667 14.8399 177.928 12.7382C183.667 10.6364 182.293 11.994 184.42 6.3208C186.546 11.994 185.172 10.6364 190.911 12.7382C185.166 14.8462 186.539 13.4823 184.42 19.1555Z" fill="#33B44A"/>
<path d="M122.957 21.9642C122.09 23.4011 120.837 24.5726 119.338 25.3488C119.031 25.4744 118.768 25.6851 118.581 25.9553C118.393 26.2255 118.288 26.5437 118.279 26.8714C118.266 27.1815 118.338 27.4893 118.485 27.7631C118.633 28.0368 118.853 28.2665 119.12 28.4283C119.694 28.805 120.365 28.83 121.127 28.4968C123.298 27.4877 125.14 25.8981 126.445 23.9078C127.75 21.9174 128.465 19.6058 128.51 17.2345V14.7217C128.521 14.3918 128.424 14.0671 128.233 13.7961C128.043 13.5252 127.768 13.3223 127.452 13.2178C127.119 13.0716 126.759 12.9961 126.395 12.9961C126.031 12.9961 125.671 13.0716 125.338 13.2178C125.021 13.3223 124.747 13.5252 124.557 13.7961C124.366 14.0671 124.269 14.3918 124.28 14.7217V17.2376C124.289 18.9037 123.831 20.5399 122.957 21.9642Z" fill="#BA9B72"/>
<path d="M131.055 23.4182C130.485 22.8153 130.013 22.1283 129.657 21.3818C129.375 22.8803 128.667 24.2683 127.615 25.383C128.589 26.5341 129.781 27.486 131.124 28.1853C131.964 28.5154 132.657 28.5216 133.203 28.204C133.472 28.0505 133.692 27.827 133.84 27.5578C133.989 27.2887 134.059 26.9844 134.044 26.6783C134.057 26.3477 133.979 26.0199 133.818 25.7298C133.657 25.4397 133.42 25.1982 133.131 25.0311C132.382 24.5689 131.686 24.0282 131.055 23.4182Z" fill="#BA9B72"/>
<path d="M137.934 31.0157C138.602 31.276 139.345 31.276 140.013 31.0157C140.703 30.7573 141.053 30.3058 141.053 29.6706V14.0118C141.053 13.389 140.703 12.922 140.013 12.6511C139.684 12.5154 139.331 12.4456 138.974 12.4456C138.617 12.4456 138.264 12.5154 137.934 12.6511C137.241 12.923 136.895 13.3766 136.895 14.0118V17.6486H133.169C132.963 17.6453 132.76 17.6961 132.581 17.7956C132.402 17.8952 132.252 18.04 132.148 18.2153C131.901 18.576 131.769 19.0017 131.769 19.4374C131.769 19.8731 131.901 20.2988 132.148 20.6595C132.252 20.8352 132.401 20.9804 132.58 21.08C132.76 21.1796 132.963 21.2301 133.169 21.2262H136.895V29.6582C136.895 30.3058 137.241 30.7573 137.934 31.0157Z" fill="#BA9B72"/>
<path d="M144.555 25.8532C144.309 26.247 144.178 26.701 144.178 27.1641C144.178 27.6272 144.309 28.0812 144.555 28.475C144.656 28.6544 144.804 28.8035 144.984 28.9065C145.164 29.0095 145.368 29.0627 145.576 29.0603H148.511V32.1398C148.501 32.3775 148.554 32.6137 148.665 32.825C148.775 33.0363 148.939 33.2155 149.141 33.3448C149.567 33.6229 150.066 33.7712 150.576 33.7712C151.086 33.7712 151.585 33.6229 152.011 33.3448C152.213 33.2155 152.377 33.0363 152.488 32.825C152.598 32.6137 152.651 32.3775 152.641 32.1398V29.0603H158.77C158.978 29.0617 159.182 29.0081 159.361 28.9052C159.541 28.8023 159.689 28.6537 159.791 28.475C160.038 28.0812 160.168 27.6272 160.168 27.1641C160.168 26.701 160.038 26.247 159.791 25.8532C159.689 25.6745 159.541 25.5259 159.361 25.423C159.182 25.3201 158.978 25.2665 158.77 25.2678H145.541C145.339 25.2716 145.142 25.3276 144.969 25.4303C144.796 25.5331 144.653 25.6789 144.555 25.8532Z" fill="#BA9B72"/>
<path d="M154.811 17.5458C154.849 18.3129 154.593 19.0658 154.093 19.6538C153.85 19.9197 153.551 20.1292 153.217 20.267C152.882 20.4048 152.521 20.4677 152.159 20.4509C151.771 20.4655 151.383 20.4024 151.02 20.2654C150.657 20.1284 150.325 19.9204 150.045 19.6538C149.767 19.3783 149.55 19.0486 149.408 18.6857C149.266 18.3228 149.202 17.9346 149.22 17.5458C149.185 16.7484 149.462 15.9681 149.992 15.3662C150.24 15.0946 150.549 14.8841 150.894 14.7516C151.239 14.6191 151.611 14.5684 151.979 14.6034C152.313 14.6412 152.65 14.5846 152.951 14.4401C153.253 14.2957 153.507 14.0694 153.684 13.7876C153.852 13.5313 153.947 13.235 153.959 12.9298C153.971 12.6246 153.9 12.3218 153.753 12.0532C153.455 11.4637 152.912 11.1689 152.124 11.1689C150.092 11.2167 148.425 11.8394 147.126 13.0372C146.506 13.6189 146.013 14.3192 145.676 15.0954C145.339 15.8715 145.165 16.7074 145.165 17.5521C145.165 18.3967 145.339 19.2326 145.676 20.0087C146.013 20.7849 146.506 21.4852 147.126 22.0669C148.44 23.2585 150.113 23.8542 152.143 23.8542C154.077 23.8542 155.677 23.2585 156.944 22.0669C157.563 21.4882 158.052 20.7864 158.377 20.0078C158.703 19.2291 158.859 18.3912 158.834 17.5489C158.875 16.4169 158.615 15.294 158.081 14.292C157.934 14.0364 157.736 13.8132 157.499 13.6365C157.262 13.4597 156.99 13.3331 156.701 13.2645C156.448 13.1897 156.182 13.1683 155.92 13.2016C155.658 13.2348 155.406 13.322 155.18 13.4575C154.753 13.7276 154.416 14.1165 154.213 14.5753C154.003 15.0486 154.098 15.6029 154.499 16.2381C154.726 16.6363 154.834 17.0896 154.811 17.5458Z" fill="#BA9B72"/>
<path d="M165.124 38.8872C165.37 38.4937 165.5 38.0404 165.5 37.5779C165.5 37.1154 165.37 36.662 165.124 36.2686C165.022 36.0889 164.873 35.9397 164.693 35.8367C164.513 35.7336 164.308 35.6806 164.1 35.6832H159.334C159.055 35.7192 158.772 35.6634 158.528 35.5244C158.421 35.4185 158.367 35.1383 158.367 34.6899V32.2456C158.377 32.0084 158.325 31.7726 158.214 31.5618C158.104 31.3509 157.939 31.1723 157.737 31.0437C157.319 30.7626 156.825 30.6123 156.32 30.6123C155.814 30.6123 155.32 30.7626 154.902 31.0437C154.7 31.1723 154.536 31.3509 154.426 31.5618C154.315 31.7726 154.262 32.0084 154.272 32.2456V36.9162C154.272 38.6163 155.192 39.4663 157.032 39.4663H164.125C164.328 39.4651 164.528 39.4109 164.703 39.3092C164.878 39.2076 165.023 39.062 165.124 38.8872Z" fill="#BA9B72"/>
<path d="M163.527 28.4937C163.855 28.6324 164.209 28.704 164.566 28.704C164.923 28.704 165.277 28.6324 165.606 28.4937C165.915 28.3953 166.183 28.2004 166.371 27.9381C166.558 27.6759 166.655 27.3605 166.645 27.0396V14.0741C166.654 13.8353 166.598 13.5986 166.485 13.3876C166.372 13.1766 166.204 12.9989 165.999 12.8722C165.574 12.5939 165.076 12.4456 164.566 12.4456C164.056 12.4456 163.558 12.5939 163.133 12.8722C162.931 13.0012 162.767 13.1799 162.657 13.3906C162.546 13.6014 162.493 13.8369 162.503 14.0741V19.1058H160.569C160.361 19.1035 160.157 19.1566 159.977 19.2597C159.798 19.3627 159.649 19.5118 159.548 19.6912C159.303 20.0847 159.172 20.538 159.172 21.0005C159.172 21.463 159.303 21.9164 159.548 22.3098C159.649 22.4892 159.798 22.6383 159.977 22.7414C160.157 22.8444 160.361 22.8976 160.569 22.8952H162.503V27.0396C162.493 27.3586 162.586 27.6725 162.771 27.9345C162.955 28.1965 163.22 28.3926 163.527 28.4937Z" fill="#BA9B72"/>
<path d="M70.8838 23.0198C70.6396 23.3683 70.5087 23.7822 70.5087 24.2061C70.5087 24.6301 70.6396 25.0439 70.8838 25.3924C70.9911 25.5636 71.1416 25.7041 71.3206 25.8002C71.4996 25.8963 71.7008 25.9447 71.9044 25.9405H79.1081V26.1895C79.0975 26.5078 79.1911 26.8209 79.375 27.0823C79.5589 27.3437 79.8232 27.5395 80.1286 27.6405C80.4507 27.7806 80.7988 27.8529 81.1507 27.8529C81.5026 27.8529 81.8507 27.7806 82.1728 27.6405C82.4783 27.5395 82.7426 27.3437 82.9265 27.0823C83.1103 26.8209 83.2039 26.5078 83.1934 26.1895V25.9405H90.3593C90.5629 25.945 90.7643 25.8968 90.9433 25.8006C91.1223 25.7045 91.2728 25.5638 91.3798 25.3924C91.6258 25.0446 91.7577 24.6305 91.7577 24.2061C91.7577 23.7817 91.6258 23.3676 91.3798 23.0198C91.2728 22.8484 91.1223 22.7077 90.9433 22.6116C90.7643 22.5155 90.5629 22.4673 90.3593 22.4718H71.9044C71.7008 22.4676 71.4996 22.5159 71.3206 22.612C71.1416 22.7081 70.9911 22.8486 70.8838 23.0198ZM77.7284 17.4774C77.6213 17.3809 77.5678 17.1224 77.5678 16.6958V12.9064C77.5678 12.2692 77.2276 11.8146 76.5472 11.5426C76.2202 11.4086 75.8697 11.3396 75.5157 11.3396C75.1617 11.3396 74.8111 11.4086 74.4841 11.5426C73.7911 11.8135 73.4478 12.2681 73.4478 12.9064V18.645C73.4478 20.2517 74.3791 21.055 76.2417 21.055H86.7747C87.3563 21.0853 87.9275 20.8949 88.3717 20.5226C88.5629 20.3542 88.7147 20.1466 88.8164 19.9143C88.9182 19.682 88.9674 19.4305 88.9607 19.1775V13.7565C88.9607 12.1498 88.0158 11.3475 86.1259 11.3496H80.1601C79.8918 11.3445 79.6289 11.4242 79.4097 11.5771C79.1904 11.73 79.0263 11.9481 78.9411 12.1996C78.8226 12.4705 78.7615 12.7624 78.7615 13.0575C78.7615 13.3525 78.8226 13.6445 78.9411 13.9153C79.023 14.1703 79.1857 14.3925 79.4052 14.549C79.6248 14.7054 79.8895 14.7878 80.1601 14.784H83.7068C84.0306 14.7495 84.3577 14.8045 84.6518 14.9428C84.7935 15.0487 84.866 15.3165 84.866 15.7399V16.6273C84.866 17.0757 84.7935 17.3528 84.6518 17.4587C84.3496 17.5961 84.0157 17.6509 83.6848 17.6175H78.5852C78.2919 17.6548 77.994 17.6061 77.7284 17.4774ZM74.2164 28.8113C73.9732 29.1202 73.8412 29.5004 73.8412 29.8918C73.8412 30.2831 73.9732 30.6633 74.2164 30.9722C74.3326 31.1309 74.4864 31.259 74.6643 31.3453C74.8422 31.4316 75.0388 31.4735 75.2369 31.4673H83.5525C83.8525 31.4531 84.1532 31.4772 84.447 31.5389C84.5122 31.5606 84.5684 31.6027 84.6071 31.659C84.6458 31.7152 84.6648 31.7824 84.6612 31.8503V32.2831C84.6748 32.3574 84.6605 32.4341 84.6211 32.4989C84.5817 32.5636 84.5198 32.612 84.447 32.6349C84.1534 32.6983 83.8525 32.7224 83.5525 32.7065H76.3803C75.4511 32.7065 74.755 32.884 74.3046 33.239C73.8541 33.594 73.621 34.2074 73.621 35.0792V37.8442C73.621 39.4716 74.5408 40.2864 76.3803 40.2884H87.9559C88.1544 40.2948 88.3514 40.2527 88.5294 40.1658C88.7074 40.0789 88.861 39.9499 88.9765 39.7902C89.2196 39.4814 89.3517 39.1012 89.3517 38.7098C89.3517 38.3184 89.2196 37.9382 88.9765 37.6293C88.8602 37.4707 88.7064 37.3426 88.5285 37.2563C88.3506 37.1699 88.154 37.1281 87.9559 37.1342H78.8529C78.5519 37.1528 78.2499 37.1233 77.9584 37.0471C77.8906 37.0216 77.833 36.975 77.7943 36.9144C77.7557 36.8537 77.7381 36.7822 77.7442 36.7108V36.25C77.7406 36.1821 77.7596 36.1149 77.7983 36.0586C77.8369 36.0024 77.8932 35.9602 77.9584 35.9386C78.2524 35.8783 78.553 35.8553 78.8529 35.8701H86.0188C86.9511 35.8701 87.6441 35.6864 88.0977 35.319C88.5513 34.9515 88.778 34.3288 88.778 33.4507V30.7262C88.778 29.8544 88.5513 29.2316 88.0977 28.858C87.6441 28.4906 86.9511 28.31 86.0188 28.31H75.2369C75.0383 28.3045 74.8413 28.3473 74.6634 28.4348C74.4854 28.5222 74.3319 28.6515 74.2164 28.8113Z" fill="#0065B2"/>
<path d="M95.6887 24.7913C96.3611 25.0623 97.1141 25.0623 97.7865 24.7913C98.4795 24.5194 98.826 24.0648 98.826 23.4275V18.4456H103.784V20.4508C103.784 20.8992 103.727 21.1732 103.62 21.2666C103.347 21.3936 103.044 21.4422 102.744 21.4067H100.854V23.3216C100.854 24.0752 100.662 24.6325 100.281 24.9844H105.116C107.027 24.9844 107.984 24.1821 107.986 22.5775V13.2363C107.986 12.6011 107.633 12.1476 106.927 11.8756C106.256 11.6016 105.501 11.6016 104.83 11.8756C104.137 12.1465 103.793 12.6011 103.793 13.2363V15.1513H98.848V13.2363C98.848 12.6011 98.5016 12.1476 97.8086 11.8756C97.1368 11.6016 96.3826 11.6016 95.7108 11.8756C95.0052 12.1465 94.6556 12.6011 94.6556 13.2363V23.44C94.6493 24.0658 94.9832 24.5204 95.6887 24.7913ZM99.7835 29.7483C99.5442 30.3583 99.5442 31.0347 99.7835 31.6446C100.023 32.2819 100.429 32.6005 101.003 32.6005H104.836C104.311 34.3255 102.736 35.6239 100.111 36.4958C99.8069 36.5839 99.5359 36.7589 99.3319 36.9988C99.1279 37.2386 99.0002 37.5326 98.9646 37.844C98.914 38.1584 98.9469 38.4804 99.0601 38.7784C99.1733 39.0765 99.3629 39.3403 99.6103 39.5441C100.136 40.0143 100.829 40.1232 101.689 39.8555C104.028 39.2327 105.82 38.1585 107.063 36.6328C107.712 37.4314 108.517 38.094 109.428 38.582C110.371 39.11 111.385 39.5031 112.44 39.7496C113.299 39.9395 113.974 39.7838 114.462 39.2888C114.694 39.0756 114.868 38.8082 114.968 38.5111C115.068 38.214 115.091 37.8968 115.035 37.5887C115.001 37.2963 114.879 37.0208 114.684 36.7984C114.489 36.5761 114.23 36.4174 113.942 36.3432C111.29 35.5399 109.737 34.2881 109.283 32.5881H113.12C113.693 32.5881 114.098 32.2694 114.336 31.6321C114.575 31.0222 114.575 30.3458 114.336 29.7359C114.101 29.1132 113.695 28.8018 113.12 28.8018H109.11V27.1733C109.11 26.535 108.767 26.0866 108.086 25.8251C107.425 25.5666 106.688 25.5666 106.027 25.8251C105.334 26.0866 104.987 26.536 104.987 27.1733V28.8018H101.012C100.439 28.808 100.032 29.1235 99.793 29.7483H99.7835ZM112.487 25.1992C112.808 25.34 113.156 25.4126 113.507 25.4126C113.859 25.4126 114.207 25.34 114.528 25.1992C114.834 25.0976 115.098 24.9012 115.282 24.6393C115.466 24.3773 115.559 24.0638 115.548 23.7451V12.5887C115.559 12.27 115.466 11.9565 115.282 11.6945C115.098 11.4326 114.834 11.2362 114.528 11.1346C114.207 10.9938 113.859 10.9211 113.507 10.9211C113.156 10.9211 112.808 10.9938 112.487 11.1346C112.181 11.2357 111.915 11.4318 111.731 11.6938C111.547 11.9558 111.453 12.2697 111.463 12.5887V23.7451C111.453 24.0653 111.549 24.38 111.735 24.6422C111.921 24.9043 112.188 25.0998 112.496 25.1992H112.487Z" fill="#0065B2"/>
<path d="M15.5696 16.4435H15.1066V15.2603H14.0041V19.5696H11.1441V16.1072H13.4498V15.2603H10.0448V20.4197H14.0041V23.1255H15.1066V17.2935H15.5696V23.1255H16.672V15.2603H15.5696V16.4435Z" fill="#495156"/>
<path d="M20.4739 23.1255H21.5858V20.0865H24.2033V19.2271H23.8348V15.2603H17.8564V16.1072H22.7323V19.2271H17.8564V20.0865H20.4739V23.1255Z" fill="#495156"/>
<path d="M25.5231 17.4026C25.4161 17.7772 25.4161 18.1738 25.5231 18.5485C25.6407 18.9358 25.8871 19.2726 26.2224 19.5044C26.6136 19.7813 27.0865 19.9226 27.5674 19.906C27.9687 19.9166 28.3657 19.8209 28.7171 19.6289C29.0255 19.4565 29.2787 19.2019 29.4478 18.8941V19.056H30.6416V19.8282H31.744V15.251H30.6416V16.7674H29.4478V17.0227C29.3223 16.7954 29.152 16.5953 28.947 16.4342H29.9108V15.5842H28.1249V15.0767H27.0224V15.5842H25.2176V16.4342H26.1814C25.8571 16.6738 25.625 17.0153 25.5231 17.4026ZM30.6353 17.6175V18.2153H29.6557C29.6772 18.0161 29.6709 17.8149 29.6368 17.6175H30.6353ZM26.7012 17.1878C26.8114 17.0758 26.9446 16.9884 27.0918 16.9315C27.2391 16.8745 27.3969 16.8494 27.5548 16.8577C27.7756 16.8522 27.9936 16.9071 28.1847 17.0165C28.3507 17.1081 28.4871 17.2441 28.5785 17.4088C28.6625 17.565 28.7058 17.7395 28.7045 17.9164C28.7049 18.0924 28.6639 18.2662 28.5848 18.4239C28.4947 18.5885 28.3593 18.7246 28.1942 18.8162C28.003 18.9255 27.785 18.9804 27.5642 18.975C27.4064 18.9832 27.2486 18.9579 27.1014 18.901C26.9542 18.8441 26.821 18.7568 26.7106 18.645C26.5133 18.4521 26.4003 18.1906 26.3956 17.9164C26.3997 17.6439 26.509 17.3832 26.7012 17.1878Z" fill="#495156"/>
<path d="M31.7377 20.239H26.3987V21.0891H30.6353V23.1254H31.7377V20.239Z" fill="#495156"/>
<path d="M35.3915 16.7051L37.3633 19.6631L38.2169 19.1898L35.3915 14.9614L32.5693 19.1898L33.4323 19.6631L35.3915 16.7051Z" fill="#495156"/>
<path d="M34.245 20.1489V23.1163H39.7698V22.2663H35.3474V20.1489H34.245Z" fill="#495156"/>
<path d="M39.6784 15.251H38.576V20.9273H39.6784V15.251Z" fill="#495156"/>
<path d="M46.9798 21.7494H44.4631V19.8157H46.7026V18.9564H42.1952V16.0917H46.7026V15.2417H41.0927V19.8157H43.3512V21.7494H40.8156V22.5994H46.9798V21.7494Z" fill="#495156"/>
<path d="M50.4446 17.0227L52.3881 20.5101L53.2952 20.0959L50.4446 14.9614L47.6035 20.0866L48.5012 20.5194L50.4446 17.0227Z" fill="#495156"/>
<path d="M54.637 15.251H53.5345V23.1162H54.637V15.251Z" fill="#495156"/>
<path d="M4.78774 30.6793H7.6226V26.6533H6.28076V27.6777H1.9088V26.6533H0.56382V30.6793H3.43332V31.3955H0V32.4324H8.18956V31.3955H4.78774V30.6793ZM1.9088 29.6425V28.7084H6.29021V29.6425H1.9088Z" fill="#495156"/>
<path d="M0.563843 34.1419H6.29024V36.2499H7.63522V33.0957H0.563843V34.1419Z" fill="#495156"/>
<path d="M13.3427 32.0089C13.6567 31.8844 13.9371 31.6893 14.1617 31.4391C14.3646 31.2028 14.5215 30.9315 14.6247 30.6389C14.7282 30.3494 14.7721 30.0424 14.7538 29.7359C14.7341 29.4268 14.6572 29.124 14.5271 28.8423C14.3962 28.5546 14.2063 28.297 13.9695 28.0856H15.031V27.0488H12.8513V26.426H11.4938V27.0488H9.28888V28.0856H10.3378C9.98497 28.3997 9.74414 28.818 9.65111 29.2782C9.54236 29.7278 9.55979 30.1983 9.70151 30.6389C9.85697 31.0944 10.1604 31.4863 10.5646 31.7536C11.0336 32.0773 11.5961 32.2423 12.1678 32.2238C12.5702 32.2319 12.9699 32.1588 13.3427 32.0089ZM10.7599 29.7919C10.7651 29.4605 10.8994 29.1438 11.1347 28.9077C11.2684 28.7706 11.4305 28.6637 11.6099 28.5943C11.7893 28.525 11.9818 28.4949 12.1741 28.506C12.4945 28.4958 12.8095 28.5887 13.0718 28.7707C13.2976 28.9229 13.4581 29.1526 13.5223 29.4152C13.579 29.6643 13.579 29.9227 13.5223 30.1718C13.4554 30.4266 13.2962 30.6482 13.075 30.7946C12.8155 30.9775 12.5021 31.0706 12.1836 31.0592C11.9904 31.0694 11.7973 31.0389 11.617 30.9696C11.4367 30.9004 11.2734 30.794 11.1378 30.6576C10.9045 30.4274 10.7692 30.1177 10.7599 29.7919Z" fill="#495156"/>
<path d="M15.9318 33.2481H12.2276V32.5195H10.8638V36.256H17.2674V32.5195H15.9224L15.9318 33.2481ZM15.9318 35.2129H12.2276V34.2788H15.9318V35.2129Z" fill="#495156"/>
<path d="M17.2768 26.6409H15.935V32.1148H17.2768V29.1225H18.2375V28.0856H17.2768V26.6409Z" fill="#495156"/>
<path d="M19.0061 32.4324H22.7103V34.0889H24.0647V32.4324H27.2051V31.3955H19.0061V32.4324Z" fill="#495156"/>
<path d="M19.5699 30.6233H26.6381V26.6533H19.5699V30.6233ZM20.9117 27.6902H25.2931V29.5864H20.9117V27.6902Z" fill="#495156"/>
<path d="M21.1385 33.052H19.7967V36.2498H26.6381V35.2129H21.1385V33.052Z" fill="#495156"/>
<path d="M36.6546 28.0856H35.7097V26.6409H34.3647V32.5196H31.6212V31.9466C32.2012 31.837 32.7177 31.5144 33.067 31.0437C33.398 30.6086 33.5601 30.0705 33.5237 29.5273C33.4979 28.9964 33.294 28.4892 32.9441 28.0856H33.6875V27.0488H31.6212V26.426H30.2888V27.0488H28.1879V28.0856H28.9344C28.5837 28.4897 28.3807 28.9985 28.358 29.5304C28.3248 30.0955 28.5019 30.6532 28.8558 31.0982C29.2097 31.5432 29.716 31.845 30.2794 31.9466V32.5196H28.1879V33.5564H34.3647V36.2498H35.7097V29.1225H36.6546V28.0856ZM29.8951 30.4863C29.7775 30.3706 29.6841 30.233 29.6204 30.0815C29.5568 29.93 29.524 29.7676 29.524 29.6036C29.524 29.4395 29.5568 29.2771 29.6204 29.1256C29.6841 28.9741 29.7775 28.8366 29.8951 28.7208C30.029 28.5841 30.1912 28.4774 30.3705 28.4081C30.5499 28.3388 30.7423 28.3085 30.9345 28.3192C31.2548 28.309 31.5699 28.4019 31.8322 28.5838C32.0594 28.7319 32.2205 28.9603 32.2826 29.2221C32.3394 29.4712 32.3394 29.7297 32.2826 29.9788C32.2209 30.2408 32.0626 30.4706 31.8385 30.6233C31.5788 30.8058 31.2656 30.8988 30.9471 30.888C30.7529 30.8993 30.5585 30.8692 30.377 30.8C30.1955 30.7307 30.0312 30.6237 29.8951 30.4863Z" fill="#495156"/>
<path d="M41.4801 32.3453L42.4156 31.9374V33.5596H43.726V26.641H42.4156V27.9768H41.3667V29.0136H42.4156V31.5077L39.628 26.2673L36.6357 31.8471L37.7633 32.3453L39.6154 28.8579L41.4801 32.3453Z" fill="#495156"/>
<path d="M40.2391 32.9399H38.8942V36.2374H45.7482V35.2005H40.2391V32.9399Z" fill="#495156"/>
<path d="M45.6348 26.6409H44.337V33.5564H45.6348V26.6409Z" fill="#495156"/>
<path d="M53.292 29.1225H52.0037V30.1594H53.292V31.9155H48.4602V30.1594H51.7234V29.1225H48.4602V27.6902H52.1644V26.6533H47.1152V32.9524H53.292V36.2498H54.637V26.6533H53.292V29.1225Z" fill="#495156"/>
<path d="M64.7196 14.3479H61.2548V36.86H64.7196V14.3479Z" fill="#858E94"/>
</g>
<defs>
<clipPath id="clip0_750_2638">
<rect width="197" height="50" fill="white"/>
</clipPath>
</defs>
</svg>
